<svg width="17" height="10" viewBox="0 0 17 10" fill="none" xmlns="http://www.w3.org/2000/svg">
<path d="M16.0405 1H14.5405C14.4385 1 14.3425 1.03906 14.2825 1.10313L8.60038 7.22188L2.91828 1.10313C2.85828 1.03906 2.76228 1 2.66028 1H1.16026C1.03025 1 0.954253 1.11563 1.03025 1.19844L8.08237 8.79375C8.33837 9.06875 8.86238 9.06875 9.11639 8.79375L16.1685 1.19844C16.2465 1.11563 16.1705 1 16.0405 1Z" fill="#8C8C8C"/>
<path fill-rule="evenodd" clip-rule="evenodd" d="M0.599932 0.793929C0.730486 0.594892 0.950673 0.5 1.16027 0.5H2.66029C2.88026 0.5 3.11564 0.582399 3.28323 0.761329L3.28469 0.762884L8.60039 6.4871L13.9161 0.762887L13.9176 0.761329C14.0851 0.582399 14.3205 0.5 14.5405 0.5H16.0405C16.2495 0.5 16.4711 0.594578 16.6018 0.795798C16.7482 1.02109 16.735 1.32465 16.5342 1.53944C16.5336 1.54005 16.5331 1.54065 16.5325 1.54126L9.4837 9.133C9.48352 9.13319 9.48387 9.13281 9.4837 9.133C9.24174 9.39458 8.90106 9.5 8.60014 9.5C8.29886 9.5 7.95896 9.39498 7.71642 9.13444L0.661883 1.53652C0.461728 1.31843 0.454702 1.01534 0.599932 0.793929ZM1.99255 1.5L8.44835 8.45306C8.44832 8.45303 8.44838 8.45309 8.44835 8.45306C8.46193 8.46757 8.5121 8.5 8.60014 8.5C8.68851 8.5 8.73709 8.4675 8.7491 8.4545L8.74999 8.45354L15.2062 1.5H14.5963L8.60039 7.95665L2.60451 1.5H1.99255Z" fill="#8C8C8C"/>
</svg>
